<svg xmlns="http://www.w3.org/2000/svg" viewBox="0 0 32 32">
  <rect width="32" height="32" rx="6" fill="#25D366"/>
  <path
    fill="#FFFFFF"
    d="M16 8.2a7.8 7.8 0 00-6.7 11.7L8 24l4-1.1a7.8 7.8 0 10 4-14.7zm0 14.1a6.3 6.3 0 01-3.1-.8l-.3-.2-2.4.7.7-2.3-.2-.3A6.3 6.3 0 1116 22.3zm3.3-4.6c-.2-.1-1.2-.6-1.4-.7-.2-.1-.4-.1-.5.1l-.5.6c-.1.2-.3.2-.5.1-.3-.1-.9-.4-1.8-1.1-.7-.6-1.1-1.4-1.2-1.6-.1-.2 0-.3.1-.4l.3-.3c.1-.1.1-.2.1-.3l-.6-1.4c-.2-.3-.4-.3-.5-.3h-.4c-.2 0-.4.1-.5.3-.5.5-.8 1.2-.8 2 0 .3.1.6.2.9.3.7 1 1.8 2.2 2.8 1.5 1.2 2.6 1.6 3 1.7.3.1.8.1 1.1-.1.3-.2.9-.6 1-1 .1-.4.1-.8 0-.9z"
  />
</svg>
